<svg xmlns="http://www.w3.org/2000/svg" x="0px" y="0px" width="100" height="100" viewBox="0,0,256,256"
style="fill:#1A1A1A;">
<g fill="#1a1a1a" fill-rule="nonzero" stroke="none" stroke-width="1" stroke-linecap="butt" stroke-linejoin="miter" stroke-miterlimit="10" stroke-dasharray="" stroke-dashoffset="0" font-family="none" font-weight="none" font-size="none" text-anchor="none" style="mix-blend-mode: normal"><g transform="scale(8,8)"><path d="M15.83984,2.99805c-0.48537,0.003 -0.97023,0.11639 -1.36524,0.33789l-9.08398,5.10547c-0.806,0.452 -1.39062,1.44152 -1.39062,2.35352v10.34961c0,0.906 0.58181,1.89556 1.38281,2.35156l9.08984,5.16406c0.401,0.228 0.89177,0.3418 1.38477,0.3418c0.48,0 0.96052,-0.10822 1.35352,-0.32422l9.39258,-5.18359c0.809,-0.453 1.39648,-1.44061 1.39648,-2.34961v-10.34961c0,-0.918 -0.5913,-1.90661 -1.4043,-2.34961l-9.38867,-5.12695c-0.3975,-0.2165 -0.88181,-0.32331 -1.36719,-0.32031zM15.85938,5c0.15,0 0.29863,0.02322 0.39063,0.07422l9.38867,5.12891c0.165,0.09 0.36133,0.4108 0.36133,0.5918v10.34961c0,0.166 -0.18719,0.49961 -0.36719,0.59961l-9.39062,5.18164c-0.183,0.101 -0.59925,0.10009 -0.78125,-0.00391l-9.08984,-5.16406c-0.185,-0.104 -0.37109,-0.44528 -0.37109,-0.61328v-10.34961c0,-0.184 0.19914,-0.51437 0.36914,-0.60937l9.08398,-5.10547c0.094,-0.054 0.25125,-0.08008 0.40625,-0.08008zM21.17969,13.13672c-3.706,0 -3.844,5.72656 0,5.72656c3.762,-0.001 3.758,-5.72656 0,-5.72656zM10.58984,13.23828c-0.863,0 -1.72684,0.00781 -2.58984,0.00781v5.49219h1.03516v-1.61719h1.55469c2.69,0 2.683,-3.88281 0,-3.88281zM13.31055,13.23828v5.5h1.03711v-1.83594h0.99609l1.59961,1.83594h1.23242v-0.07031l-1.66406,-1.875c2.003,-0.407 1.88411,-3.53187 -0.58789,-3.54687c-0.871,0 -1.74228,-0.00781 -2.61328,-0.00781zM21.17969,14.07813c2.388,0 2.425,3.83594 0,3.83594c-2.425,0 -2.405,-3.83594 0,-3.83594zM9.00195,14.12305h1.75c1.147,0 1.143,2.10352 0,2.10352h-1.75zM14.34766,14.21094h1.57617c1.264,0 1.259,1.75781 0,1.75781h-1.57617z"></path></g></g>
</svg>